<?xml version="1.0" encoding="iso-8859-1"?>
<!-- Generator: Adobe Illustrator 19.0.0, SVG Export Plug-In . SVG Version: 6.00 Build 0)  -->
<svg version="1.1" id="Layer_1" xmlns="http://www.w3.org/2000/svg" xmlns:xlink="http://www.w3.org/1999/xlink" x="0px" y="0px"
	 viewBox="0 0 512.001 512.001" style="enable-background:new 0 0 512.001 512.001;" xml:space="preserve">
<rect x="8.535" y="311.057" style="fill:#DD852C;" width="494.927" height="63.577"/>
<path style="fill:#E6E6E6;" d="M466.491,247.477H45.507c-13.257,0-24.004,10.748-24.004,24.004v39.574h468.992v-39.574
	C490.496,258.224,479.749,247.477,466.491,247.477z"/>
<path style="fill:#CCCCCC;" d="M83.69,247.477H45.507c-13.257,0-24.004,10.748-24.004,24.004v39.574h38.182v-39.574
	C59.686,258.224,70.432,247.477,83.69,247.477z"/>
<g>
	<rect x="419.01" y="374.627" style="fill:#DD852C;" width="46.088" height="46.088"/>
	<rect x="46.898" y="374.627" style="fill:#DD852C;" width="46.088" height="46.088"/>
	<path style="fill:#DD852C;" d="M468.513,247.566V119.33c0-15.491-12.558-28.049-28.049-28.049H71.532
		c-15.491,0-28.049,12.558-28.049,28.049v128.236"/>
</g>
<g>
	<path style="fill:#CCCCCC;" d="M230.335,200.6c-5.497,10.925-13.269,20.507-22.704,28.086
		c-14.567,11.756-33.094,18.789-53.271,18.789c-33.23,0-61.988-19.085-75.963-46.875c9.104-18.117,24.502-32.525,43.313-40.377
		c10.049-4.188,21.076-6.498,32.65-6.498C187.602,153.725,216.36,172.809,230.335,200.6z"/>
	<path style="fill:#CCCCCC;" d="M357.635,153.721c-33.234,0-61.993,19.082-75.971,46.878c13.978,27.795,42.737,46.878,75.971,46.878
		s61.993-19.082,75.971-46.878C419.628,172.804,390.869,153.721,357.635,153.721z"/>
</g>
<g>
	<path style="fill:#E6E6E6;" d="M230.335,200.6c-5.497,10.925-13.269,20.507-22.704,28.086c-2.947,0.353-5.952,0.523-8.99,0.523
		c-39.899,0-72.743-30.192-76.931-68.987c10.049-4.188,21.076-6.498,32.65-6.498C187.602,153.725,216.36,172.809,230.335,200.6z"/>
	<path style="fill:#E6E6E6;" d="M433.606,200.6c-5.497,10.925-13.269,20.507-22.704,28.086c-2.947,0.353-5.952,0.523-8.99,0.523
		c-39.899,0-72.743-30.192-76.931-68.987c10.049-4.188,21.076-6.498,32.65-6.498C390.873,153.725,419.631,172.809,433.606,200.6z"/>
</g>
<path d="M503.465,302.519h-4.434v-31.039c0-14.247-9.209-26.376-21.982-30.772V119.33c0-20.173-16.411-36.584-36.584-36.584h-76.142
	c-4.715,0-8.535,3.821-8.535,8.535s3.82,8.535,8.535,8.535h76.142c10.76,0,19.514,8.754,19.514,19.514v119.612h-48.364
	c12.293-8.693,22.531-20.415,29.617-34.508c1.213-2.413,1.213-5.257,0-7.669c-7.248-14.415-18.173-26.79-31.592-35.786
	c-3.914-2.624-9.217-1.581-11.842,2.335c-2.625,3.915-1.58,9.217,2.336,11.842c9.771,6.553,17.926,15.293,23.781,25.447
	c-13.651,23.756-38.664,38.339-66.28,38.339c-27.618,0-52.631-14.584-66.282-38.342c13.651-23.759,38.666-38.342,66.282-38.342
	c7.693,0,15.281,1.138,22.553,3.38c4.509,1.39,9.282-1.138,10.671-5.641c1.39-4.504-1.136-9.283-5.641-10.671
	c-8.903-2.746-18.185-4.138-27.583-4.138c-35.566,0-67.596,19.764-83.596,51.578c-1.213,2.413-1.213,5.257,0,7.669
	c7.087,14.093,17.324,25.815,29.617,34.508h-95.312c12.293-8.693,22.531-20.415,29.618-34.508c1.213-2.413,1.213-5.257,0-7.669
	c-16-31.815-48.033-51.578-83.597-51.578s-67.598,19.764-83.597,51.578c-1.213,2.413-1.213,5.257,0,7.669
	c7.088,14.093,17.325,25.815,29.618,34.508H52.018V119.33c0-10.76,8.754-19.514,19.514-19.514h264.339
	c4.715,0,8.535-3.821,8.535-8.535s-3.82-8.535-8.535-8.535H71.532c-20.173,0-36.584,16.411-36.584,36.584v121.381
	c-12.772,4.396-21.979,16.524-21.979,30.771v31.039H8.535c-4.714,0-8.535,3.822-8.535,8.535v63.577c0,4.714,3.821,8.535,8.535,8.535
	h29.828v37.553c0,4.714,3.821,8.535,8.535,8.535h46.088c4.714,0,8.535-3.822,8.535-8.535v-37.553h246.202
	c4.715,0,8.535-3.822,8.535-8.535c0-4.714-3.82-8.535-8.535-8.535H17.07v-46.507h59.343c4.714,0,8.535-3.822,8.535-8.535
	c0-4.714-3.821-8.535-8.535-8.535H30.039v-31.039c0-8.529,6.94-15.469,15.468-15.469h420.984c8.53,0,15.469,6.94,15.469,15.469
	v31.039H104.865c-4.714,0-8.535,3.822-8.535,8.535c0,4.714,3.821,8.535,8.535,8.535H494.93v46.507H376.173
	c-4.715,0-8.535,3.822-8.535,8.535c0,4.714,3.82,8.535,8.535,8.535h34.306v37.553c0,4.714,3.82,8.535,8.535,8.535h46.088
	c4.715,0,8.535-3.822,8.535-8.535v-37.553h29.829c4.715,0,8.535-3.822,8.535-8.535v-63.577
	C512,306.341,508.18,302.519,503.465,302.519z M84.451,383.166v29.017H55.433v-29.017H84.451z M88.082,200.599
	c13.651-23.759,38.666-38.342,66.283-38.342s52.631,14.583,66.283,38.342c-13.652,23.759-38.666,38.342-66.283,38.342
	S101.734,224.357,88.082,200.599z M456.566,412.184h-29.017v-29.017h29.017V412.184z"/>
<g>
</g>
<g>
</g>
<g>
</g>
<g>
</g>
<g>
</g>
<g>
</g>
<g>
</g>
<g>
</g>
<g>
</g>
<g>
</g>
<g>
</g>
<g>
</g>
<g>
</g>
<g>
</g>
<g>
</g>
</svg>
