<?xml version="1.0" encoding="iso-8859-1"?>
<!-- Generator: Adobe Illustrator 19.0.0, SVG Export Plug-In . SVG Version: 6.00 Build 0)  -->
<svg version="1.1" id="Layer_1" xmlns="http://www.w3.org/2000/svg" xmlns:xlink="http://www.w3.org/1999/xlink" x="0px" y="0px"
	 viewBox="0 0 512 512" style="enable-background:new 0 0 512 512;" xml:space="preserve">
<rect x="34.834" y="70.22" style="fill:#9B735A;" width="442.333" height="433.486"/>
<rect x="34.834" y="326.773" style="fill:#FFDC64;" width="442.333" height="176.933"/>
<rect x="34.834" y="441.78" style="fill:#FFC850;" width="442.333" height="61.927"/>
<rect x="34.834" y="441.78" style="fill:#E1A546;" width="442.333" height="17.693"/>
<rect x="79.067" y="415.24" style="fill:#00C3FF;" width="88.467" height="88.467"/>
<rect x="79.067" y="415.24" style="fill:#00AAF0;" width="88.467" height="26.54"/>
<path style="fill:#FFDC64;" d="M353.313,70.22H158.687c-9.772,0-17.693-7.921-17.693-17.693v-26.54
	c0-9.772,7.921-17.693,17.693-17.693h194.626c9.772,0,17.693,7.921,17.693,17.693v26.54C371.006,62.299,363.085,70.22,353.313,70.22
	z"/>
<path style="fill:#FF6991;" d="M123.3,362.16L123.3,362.16c-24.429,0-44.233,19.804-44.233,44.233v8.847h88.467v-8.847
	C167.533,381.964,147.729,362.16,123.3,362.16z"/>
<rect x="344.467" y="415.24" style="fill:#00C3FF;" width="88.467" height="88.467"/>
<rect x="344.467" y="415.24" style="fill:#00AAF0;" width="88.467" height="26.54"/>
<g>
	<path style="fill:#FF6991;" d="M388.7,362.16L388.7,362.16c-24.429,0-44.233,19.804-44.233,44.233v8.847h88.467v-8.847
		C432.933,381.964,413.129,362.16,388.7,362.16z"/>
	<path style="fill:#FF6991;" d="M256,362.16L256,362.16c-24.429,0-44.233,19.804-44.233,44.233v8.847h88.467v-8.847
		C300.233,381.964,280.429,362.16,256,362.16z"/>
</g>
<rect x="211.767" y="415.24" style="fill:#9B735A;" width="88.467" height="88.467"/>
<rect x="211.767" y="415.24" style="fill:#8C5F50;" width="44.233" height="88.467"/>
<rect x="34.834" y="291.387" style="fill:#FAEBC8;" width="442.333" height="35.387"/>
<rect x="34.834" y="326.773" style="fill:#FFC850;" width="442.333" height="26.54"/>
<path style="fill:#00C3FF;" d="M123.3,114.454L123.3,114.454c14.658,0,26.54,11.882,26.54,26.54v26.54H96.76v-26.54
	C96.76,126.336,108.642,114.454,123.3,114.454z"/>
<rect x="96.76" y="167.533" style="fill:#8C5F50;" width="53.08" height="53.08"/>
<rect x="96.76" y="220.613" style="fill:#00C3FF;" width="53.08" height="70.773"/>
<g>
	<path style="fill:#00AAF0;" d="M123.3,114.454c-14.658,0-26.54,11.882-26.54,26.54v26.54c0-14.658,11.882-26.54,26.54-26.54
		s26.54,11.882,26.54,26.54v-26.54C149.84,126.336,137.958,114.454,123.3,114.454z"/>
	<rect x="96.76" y="220.613" style="fill:#00AAF0;" width="53.08" height="26.54"/>
</g>
<g>
	<path style="fill:#FFF082;" d="M176.38,48.104L176.38,48.104c-4.886,0-8.847-3.961-8.847-8.847l0,0
		c0-4.886,3.961-8.847,8.847-8.847l0,0c4.886,0,8.847,3.961,8.847,8.847l0,0C185.227,44.143,181.266,48.104,176.38,48.104z"/>
	<path style="fill:#FFF082;" d="M335.62,48.104L335.62,48.104c-4.886,0-8.847-3.961-8.847-8.847l0,0
		c0-4.886,3.961-8.847,8.847-8.847l0,0c4.886,0,8.847,3.961,8.847,8.847l0,0C344.467,44.143,340.505,48.104,335.62,48.104z"/>
</g>
<path style="fill:#FFFFFF;" d="M300.233,48.104h-88.467c-4.886,0-8.847-3.961-8.847-8.847l0,0c0-4.886,3.961-8.847,8.847-8.847
	h88.467c4.886,0,8.847,3.961,8.847,8.847l0,0C309.08,44.143,305.119,48.104,300.233,48.104z"/>
<g>
	<path style="fill:#FF507D;" d="M123.3,362.16c-24.43,0-44.233,19.804-44.233,44.233v8.847h26.54v-8.847
		c0-19.773,13.063-36.319,30.963-41.983C132.356,363.078,127.956,362.16,123.3,362.16z"/>
	<path style="fill:#FF507D;" d="M256,362.16c-24.43,0-44.233,19.804-44.233,44.233v8.847h26.54v-8.847
		c0-19.773,13.063-36.319,30.963-41.983C265.056,363.078,260.656,362.16,256,362.16z"/>
	<path style="fill:#FF507D;" d="M388.7,362.16c-24.43,0-44.233,19.804-44.233,44.233v8.847h26.54v-8.847
		c0-19.773,13.063-36.319,30.963-41.983C397.755,363.078,393.355,362.16,388.7,362.16z"/>
</g>
<path style="fill:#00C3FF;" d="M211.767,114.454L211.767,114.454c14.658,0,26.54,11.882,26.54,26.54v26.54h-53.08v-26.54
	C185.227,126.336,197.109,114.454,211.767,114.454z"/>
<rect x="185.227" y="167.533" style="fill:#8C5F50;" width="53.08" height="53.08"/>
<rect x="185.227" y="220.613" style="fill:#00C3FF;" width="53.08" height="70.773"/>
<g>
	<path style="fill:#00AAF0;" d="M211.767,114.454c-14.658,0-26.54,11.882-26.54,26.54v26.54c0-14.658,11.882-26.54,26.54-26.54
		c14.658,0,26.54,11.882,26.54,26.54v-26.54C238.307,126.336,226.425,114.454,211.767,114.454z"/>
	<rect x="185.227" y="220.613" style="fill:#00AAF0;" width="53.08" height="26.54"/>
</g>
<path style="fill:#00C3FF;" d="M300.233,114.454L300.233,114.454c14.658,0,26.54,11.882,26.54,26.54v26.54h-53.08v-26.54
	C273.693,126.336,285.575,114.454,300.233,114.454z"/>
<rect x="273.693" y="167.533" style="fill:#8C5F50;" width="53.08" height="53.08"/>
<rect x="273.693" y="220.613" style="fill:#00C3FF;" width="53.08" height="70.773"/>
<g>
	<path style="fill:#00AAF0;" d="M300.233,114.454c-14.658,0-26.54,11.882-26.54,26.54v26.54c0-14.658,11.882-26.54,26.54-26.54
		s26.54,11.882,26.54,26.54v-26.54C326.773,126.336,314.891,114.454,300.233,114.454z"/>
	<rect x="273.693" y="220.613" style="fill:#00AAF0;" width="53.08" height="26.54"/>
</g>
<path style="fill:#00C3FF;" d="M388.7,114.454L388.7,114.454c14.658,0,26.54,11.882,26.54,26.54v26.54h-53.08v-26.54
	C362.16,126.336,374.042,114.454,388.7,114.454z"/>
<rect x="362.16" y="167.533" style="fill:#8C5F50;" width="53.08" height="53.08"/>
<rect x="362.16" y="220.613" style="fill:#00C3FF;" width="53.08" height="70.773"/>
<g>
	<path style="fill:#00AAF0;" d="M388.7,114.454c-14.658,0-26.54,11.882-26.54,26.54v26.54c0-14.658,11.882-26.54,26.54-26.54
		s26.54,11.882,26.54,26.54v-26.54C415.24,126.336,403.358,114.454,388.7,114.454z"/>
	<rect x="362.16" y="220.613" style="fill:#00AAF0;" width="53.08" height="26.54"/>
</g>
<path d="M494.86,495.413h-9.4V78.514h0.553c4.58,0,8.294-3.713,8.294-8.294s-3.713-8.294-8.294-8.294H377.534
	c1.136-2.917,1.766-6.085,1.766-9.4v-26.54C379.3,11.658,367.643,0,353.313,0H158.687C144.357,0,132.7,11.658,132.7,25.987v26.54
	c0,3.314,0.63,6.482,1.766,9.4H25.987c-4.58,0-8.294,3.713-8.294,8.294s3.713,8.294,8.294,8.294h0.553v416.898h-9.4
	c-4.58,0-8.294,3.713-8.294,8.294c0,4.581,3.713,8.294,8.294,8.294H494.86c4.58,0,8.294-3.712,8.294-8.294
	C503.153,499.126,499.44,495.413,494.86,495.413z M149.287,52.527v-26.54c0-5.183,4.217-9.4,9.4-9.4h194.626
	c5.183,0,9.4,4.217,9.4,9.4v26.54c0,5.183-4.217,9.4-9.4,9.4H158.687C153.504,61.927,149.287,57.71,149.287,52.527z M43.127,335.067
	h274.799c4.58,0,8.294-3.713,8.294-8.294s-3.713-8.294-8.294-8.294H43.127V299.68h18.246c4.58,0,8.294-3.713,8.294-8.294
	s-3.713-8.294-8.294-8.294H43.127V78.514h425.745v204.579h-45.339V140.994c0-19.207-15.627-34.834-34.834-34.834
	s-34.834,15.627-34.834,34.834v142.099h-18.799V140.994c0-19.207-15.627-34.834-34.834-34.834
	c-19.207,0-34.834,15.627-34.834,34.834v142.099H246.6V140.994c0-19.207-15.626-34.834-34.834-34.834s-34.834,15.627-34.834,34.834
	v142.099h-18.799V140.994c0-19.207-15.627-34.834-34.834-34.834s-34.834,15.627-34.834,34.834v150.393
	c0,4.58,3.713,8.294,8.294,8.294h372.112v18.799h-62.479c-4.58,0-8.294,3.713-8.294,8.294s3.713,8.294,8.294,8.294h62.479v160.346
	h-27.646v-89.019c0-28.963-23.564-52.527-52.527-52.527c-28.963,0-52.527,23.564-52.527,52.527v89.019h-27.646v-89.019
	c0-28.963-23.564-52.527-52.527-52.527s-52.527,23.564-52.527,52.527v89.019h-27.646v-89.019c0-28.963-23.564-52.527-52.527-52.527
	s-52.527,23.564-52.527,52.527v89.019H43.127V335.067z M370.454,175.827h36.492v36.492h-36.492V175.827z M406.946,159.24h-36.492
	v-18.246c0-10.061,8.185-18.246,18.246-18.246s18.246,8.185,18.246,18.246V159.24z M370.454,228.907h36.492v54.186h-36.492V228.907z
	 M281.987,175.827h36.492v36.492h-36.492V175.827z M318.479,159.24h-36.492v-18.246c0-10.061,8.185-18.246,18.246-18.246
	s18.246,8.185,18.246,18.246V159.24z M281.987,228.907h36.492v54.186h-36.492V228.907z M193.521,175.827h36.492v36.492h-36.492
	V175.827z M230.013,159.24h-36.492v-18.246c0-10.061,8.185-18.246,18.246-18.246c10.061,0,18.246,8.185,18.246,18.246V159.24z
	 M193.521,228.907h36.492v54.186h-36.492V228.907z M105.054,175.827h36.492v36.492h-36.492V175.827z M141.546,159.24h-36.492
	v-18.246c0-10.061,8.185-18.246,18.246-18.246s18.246,8.185,18.246,18.246V159.24z M105.054,228.907h36.492v54.186h-36.492V228.907z
	 M424.639,406.946H352.76v-0.553c0-19.816,16.123-35.94,35.94-35.94c19.817,0,35.94,16.123,35.94,35.94V406.946z M352.76,423.533
	h71.879v71.879H352.76V423.533z M291.94,406.946H220.06v-0.553c0-19.816,16.123-35.94,35.94-35.94s35.94,16.123,35.94,35.94V406.946
	z M220.06,423.533h27.646v71.879H220.06V423.533z M264.294,423.533h27.646v71.879h-27.646V423.533z M159.24,406.946H87.361v-0.553
	c0-19.816,16.123-35.94,35.94-35.94s35.94,16.123,35.94,35.94V406.946z M87.361,423.533h71.879v71.879H87.361V423.533z"/>
<path d="M353.313,335.067h17.693c4.58,0,8.294-3.713,8.294-8.294s-3.713-8.294-8.294-8.294h-17.693c-4.58,0-8.294,3.713-8.294,8.294
	S348.733,335.067,353.313,335.067z"/>
<g>
</g>
<g>
</g>
<g>
</g>
<g>
</g>
<g>
</g>
<g>
</g>
<g>
</g>
<g>
</g>
<g>
</g>
<g>
</g>
<g>
</g>
<g>
</g>
<g>
</g>
<g>
</g>
<g>
</g>
</svg>
