<?xml version="1.0" ?><svg id="Layer_1" style="enable-background:new 0 0 512 512;" version="1.1" viewBox="0 0 512 512" xml:space="preserve" xmlns="http://www.w3.org/2000/svg" xmlns:xlink="http://www.w3.org/1999/xlink"><g id="XMLID_189_"><path d="M43.2,163v331.4h131.2V163H43.2z M73.9,480.7H48.2v-22.2c0-6.3,4-11.4,9-11.4h7.8c5,0,9,5.1,9,11.4V480.7z    M74,435.2H48.3V413c0-6.3,4-11.4,9-11.4H65c5,0,9,5.1,9,11.4V435.2z M74.1,389.7H48.4v-22.2c0-6.3,4-11.4,9-11.4h7.8   c5,0,9,5.1,9,11.4V389.7z M74.2,344.2H48.5V322c0-6.3,4-11.4,9-11.4h7.8c5,0,9,5.1,9,11.4V344.2z M74.3,298.7H48.6v-22.2   c0-6.3,4-11.4,9-11.4h7.8c5,0,9,5.1,9,11.4V298.7z M74.4,253.2H48.7v-22.2c0-6.3,4-11.4,9-11.4h7.8c5,0,9,5.1,9,11.4V253.2z    M74.5,207.7H48.8v-22.2c0-6.3,4-11.4,9-11.4h7.8c5,0,9,5.1,9,11.4V207.7z M105.4,480.7H79.7v-22.2c0-6.3,4-11.4,9-11.4h7.8   c5,0,9,5.1,9,11.4V480.7z M105.5,435.2H79.8V413c0-6.3,4-11.4,9-11.4h7.8c5,0,9,5.1,9,11.4V435.2z M105.6,389.7H79.9v-22.2   c0-6.3,4-11.4,9-11.4h7.8c5,0,9,5.1,9,11.4V389.7z M105.7,344.2H80V322c0-6.3,4-11.4,9-11.4h7.8c5,0,9,5.1,9,11.4V344.2z    M105.8,298.7H80.1v-22.2c0-6.3,4-11.4,9-11.4h7.8c5,0,9,5.1,9,11.4V298.7z M105.9,253.2H80.2v-22.2c0-6.3,4-11.4,9-11.4h7.8   c5,0,9,5.1,9,11.4V253.2z M106,207.7H80.3v-22.2c0-6.3,4-11.4,9-11.4h7.8c5,0,9,5.1,9,11.4V207.7z M136.9,480.7h-25.7v-22.2   c0-6.3,4-11.4,9-11.4h7.8c5,0,9,5.1,9,11.4V480.7z M137,435.2h-25.7V413c0-6.3,4-11.4,9-11.4h7.8c5,0,9,5.1,9,11.4V435.2z    M137.1,389.7h-25.7v-22.2c0-6.3,4-11.4,9-11.4h7.8c5,0,9,5.1,9,11.4V389.7z M137.2,344.2h-25.7V322c0-6.3,4-11.4,9-11.4h7.8   c5,0,9,5.1,9,11.4V344.2z M137.3,298.7h-25.7v-22.2c0-6.3,4-11.4,9-11.4h7.8c5,0,9,5.1,9,11.4V298.7z M137.4,253.2h-25.7v-22.2   c0-6.3,4-11.4,9-11.4h7.8c5,0,9,5.1,9,11.4V253.2z M137.5,207.7h-25.7v-22.2c0-6.3,4-11.4,9-11.4h7.8c5,0,9,5.1,9,11.4V207.7z    M168.3,480.7h-25.7v-22.2c0-6.3,4-11.4,9-11.4h7.8c5,0,9,5.1,9,11.4V480.7z M168.4,435.2h-25.7V413c0-6.3,4-11.4,9-11.4h7.8   c5,0,9,5.1,9,11.4V435.2z M168.6,389.7h-25.7v-22.2c0-6.3,4-11.4,9-11.4h7.8c5,0,9,5.1,9,11.4V389.7z M168.7,344.2h-25.7V322   c0-6.3,4-11.4,9-11.4h7.8c5,0,9,5.1,9,11.4V344.2z M168.8,298.7h-25.7v-22.2c0-6.3,4-11.4,9-11.4h7.8c5,0,9,5.1,9,11.4V298.7z    M168.9,253.2h-25.7v-22.2c0-6.3,4-11.4,9-11.4h7.8c5,0,9,5.1,9,11.4V253.2z M169,207.7h-25.7v-22.2c0-6.3,4-11.4,9-11.4h7.8   c5,0,9,5.1,9,11.4V207.7z" id="XMLID_277_"/><path d="M336.2,163v331.4h131.2V163H336.2z M366.9,480.7h-25.7v-22.2c0-6.3,4-11.4,9-11.4h7.8c5,0,9,5.1,9,11.4   V480.7z M367,435.2h-25.7V413c0-6.3,4-11.4,9-11.4h7.8c5,0,9,5.1,9,11.4V435.2z M367.1,389.7h-25.7v-22.2c0-6.3,4-11.4,9-11.4h7.8   c5,0,9,5.1,9,11.4V389.7z M367.2,344.2h-25.7V322c0-6.3,4-11.4,9-11.4h7.8c5,0,9,5.1,9,11.4V344.2z M367.3,298.7h-25.7v-22.2   c0-6.3,4-11.4,9-11.4h7.8c5,0,9,5.1,9,11.4V298.7z M367.4,253.2h-25.7v-22.2c0-6.3,4-11.4,9-11.4h7.8c5,0,9,5.1,9,11.4V253.2z    M367.5,207.7h-25.7v-22.2c0-6.3,4-11.4,9-11.4h7.8c5,0,9,5.1,9,11.4V207.7z M398.3,480.7h-25.7v-22.2c0-6.3,4-11.4,9-11.4h7.8   c5,0,9,5.1,9,11.4V480.7z M398.4,435.2h-25.7V413c0-6.3,4-11.4,9-11.4h7.8c5,0,9,5.1,9,11.4V435.2z M398.6,389.7h-25.7v-22.2   c0-6.3,4-11.4,9-11.4h7.8c5,0,9,5.1,9,11.4V389.7z M398.7,344.2H373V322c0-6.3,4-11.4,9-11.4h7.8c5,0,9,5.1,9,11.4V344.2z    M398.8,298.7h-25.7v-22.2c0-6.3,4-11.4,9-11.4h7.8c5,0,9,5.1,9,11.4V298.7z M398.9,253.2h-25.7v-22.2c0-6.3,4-11.4,9-11.4h7.8   c5,0,9,5.1,9,11.4V253.2z M399,207.7h-25.7v-22.2c0-6.3,4-11.4,9-11.4h7.8c5,0,9,5.1,9,11.4V207.7z M429.8,480.7h-25.7v-22.2   c0-6.3,4-11.4,9-11.4h7.8c5,0,9,5.1,9,11.4V480.7z M429.9,435.2h-25.7V413c0-6.3,4-11.4,9-11.4h7.8c5,0,9,5.1,9,11.4V435.2z    M430,389.7h-25.7v-22.2c0-6.3,4-11.4,9-11.4h7.8c5,0,9,5.1,9,11.4V389.7z M430.2,344.2h-25.7V322c0-6.3,4-11.4,9-11.4h7.8   c5,0,9,5.1,9,11.4V344.2z M430.3,298.7h-25.7v-22.2c0-6.3,4-11.4,9-11.4h7.8c5,0,9,5.1,9,11.4V298.7z M430.4,253.2h-25.7v-22.2   c0-6.3,4-11.4,9-11.4h7.8c5,0,9,5.1,9,11.4V253.2z M430.5,207.7h-25.7v-22.2c0-6.3,4-11.4,9-11.4h7.8c5,0,9,5.1,9,11.4V207.7z    M461.3,480.7h-25.7v-22.2c0-6.3,4-11.4,9-11.4h7.8c5,0,9,5.1,9,11.4V480.7z M461.4,435.2h-25.7V413c0-6.3,4-11.4,9-11.4h7.8   c5,0,9,5.1,9,11.4V435.2z M461.5,389.7h-25.7v-22.2c0-6.3,4-11.4,9-11.4h7.8c5,0,9,5.1,9,11.4V389.7z M461.6,344.2h-25.7V322   c0-6.3,4-11.4,9-11.4h7.8c5,0,9,5.1,9,11.4V344.2z M461.7,298.7H436v-22.2c0-6.3,4-11.4,9-11.4h7.8c5,0,9,5.1,9,11.4V298.7z    M461.9,253.2h-25.7v-22.2c0-6.3,4-11.4,9-11.4h7.8c5,0,9,5.1,9,11.4V253.2z M462,207.7h-25.7v-22.2c0-6.3,4-11.4,9-11.4h7.8   c5,0,9,5.1,9,11.4V207.7z" id="XMLID_247_"/><path d="M174.4,365.1v129.4h161.7V365.1H174.4z M204.4,486.2h-23.9v-15.9h23.9V486.2z M204.4,461.7h-23.9v-15.9   h23.9V461.7z M204.4,437.2h-23.9v-15.9h23.9V437.2z M204.4,412.7h-23.9v-15.9h23.9V412.7z M204.4,388.2h-23.9v-15.9h23.9V388.2z    M235.8,486.2h-23.9v-15.9h23.9V486.2z M235.8,461.7h-23.9v-15.9h23.9V461.7z M235.8,437.2h-23.9v-15.9h23.9V437.2z M235.8,412.7   h-23.9v-15.9h23.9V412.7z M235.8,388.2h-23.9v-15.9h23.9V388.2z M267.1,486.2h-23.9v-15.9h23.9V486.2z M267.1,461.7h-23.9v-15.9   h23.9V461.7z M267.1,437.2h-23.9v-15.9h23.9V437.2z M267.1,412.7h-23.9v-15.9h23.9V412.7z M267.1,388.2h-23.9v-15.9h23.9V388.2z    M298.4,486.2h-23.9v-15.9h23.9V486.2z M298.4,461.7h-23.9v-15.9h23.9V461.7z M298.4,437.2h-23.9v-15.9h23.9V437.2z M298.4,412.7   h-23.9v-15.9h23.9V412.7z M298.4,388.2h-23.9v-15.9h23.9V388.2z M329.7,486.2h-23.9v-15.9h23.9V486.2z M329.7,461.7h-23.9v-15.9   h23.9V461.7z M329.7,437.2h-23.9v-15.9h23.9V437.2z M329.7,412.7h-23.9v-15.9h23.9V412.7z M329.7,388.2h-23.9v-15.9h23.9V388.2z" id="XMLID_220_"/><path d="M174.4,95.5v268.3h161.7V95.5H174.4z M329.7,355.3H180.8V347h148.9V355.3z M329.7,336.6H180.8v-8.3h148.9   V336.6z M329.7,317.9H180.8v-8.3h148.9V317.9z M329.7,299.1H180.8v-8.3h148.9V299.1z M329.7,280.4H180.8v-8.3h148.9V280.4z    M329.7,261.7H180.8v-8.3h148.9V261.7z M329.7,243H180.8v-8.3h148.9V243z M329.7,224.2H180.8V216h148.9V224.2z M329.7,205.5H180.8   v-8.3h148.9V205.5z M329.7,186.8H180.8v-8.3h148.9V186.8z M329.7,168.1H180.8v-8.3h148.9V168.1z M329.7,149.3H180.8v-8.3h148.9   V149.3z M329.7,130.6H180.8v-8.3h148.9V130.6z M329.7,111.9H180.8v-8.3h148.9V111.9z" id="XMLID_204_"/><polygon id="XMLID_203_" points="172,76.5 43.2,108.3 43.2,160.4 172,160.4  "/><polygon id="XMLID_202_" points="41.6,98.8 172,74.6 172,77.3 43.2,105.4  "/><polygon id="XMLID_201_" points="338.1,76.8 466.9,108.6 466.9,160.7 338.1,160.7  "/><polygon id="XMLID_200_" points="466.9,98.9 338.1,74.9 338.1,77.7 466.9,105.1  "/><g id="XMLID_191_"><path d="M237.6,36.2c-6.8,0-10.2,6.3-10.2,13.2c0,6.8,3.7,12.8,10.1,12.8c6.5,0,10.2-6,10.2-13.2    C247.7,42.8,244.4,36.2,237.6,36.2z" id="XMLID_199_"/><path d="M174.4,6v87.5h158.8V6H174.4z M217.8,65.1h-4.1V50.2h-15.3v14.9h-4.1V33.4h4.1v13.3h15.3V33.4h4.1V65.1z     M237.3,65.6c-8.4,0-14.2-6.5-14.2-16.1c0-10.1,6.3-16.6,14.7-16.6c8.7,0,14.2,6.6,14.2,16C252,59.8,245.4,65.6,237.3,65.6z     M276,36.8h-9.7v28.2h-4.1V36.8h-9.6v-3.5H276V36.8z M297.3,65.1h-17.8V33.4h17.1v3.4h-13v10h12.3v3.4h-12.3v11.4h13.7V65.1z     M320.3,65.1h-17.6V33.4h4.1v28.3h13.5V65.1z" id="XMLID_192_"/></g><rect height="9.5" id="XMLID_190_" width="446.1" x="33" y="496.5"/></g></svg>