<?xml version="1.0" encoding="iso-8859-1"?>
<svg xmlns="http://www.w3.org/2000/svg" xmlns:xlink="http://www.w3.org/1999/xlink" version="1.1" viewBox="0 0 26 26" enable-background="new 0 0 26 26" width="512px" height="512px">
  <path d="m25.7,3.1c0.2-0.2 0.3-0.5 0.3-0.7s-0.1-0.5-0.3-0.7l-1.4-1.4c-0.2-0.2-0.5-0.3-0.7-0.3s-0.5,0.1-0.7,0.3l-.5,.5c-0.2,0.2-0.5,0.2-0.7,0l-.5-.5c-0.2-0.2-0.4-0.3-0.7-0.3-0.3,0-0.5,0.1-0.7,0.3l-1.4,1.4c-0.4,0.4-0.4,1 0,1.4l.5,.5c0.2,0.2 0.2,0.5 0,0.7l-.5,.5c-0.2,0.2-0.5,0.2-0.7,0l-.5-.5c-0.4-0.4-1-0.4-1.4,0l-1.4,1.4c-0.4,0.4-0.4,1 0,1.4l.5,.5c0.2,0.2 0.2,0.5 0,0.7l-.8,.8c-0.2,0.2-0.4,0.2-0.6,0.1-1.3-0.8-2.8-1.2-4.5-1.2-5,0-9,4-9,9s4,9 9,9 9-4 9-9c0-1.6-0.4-3.1-1.2-4.5-0.1-0.2-0.1-0.4 0.1-0.6l8.8-8.8zm-16.7,18.9c-2.8,0-5-2.2-5-5s2.2-5 5-5 5,2.2 5,5-2.2,5-5,5z" fill="#353637"/>
</svg>
