<?xml version="1.0" encoding="iso-8859-1"?>
<!-- Generator: Adobe Illustrator 19.0.0, SVG Export Plug-In . SVG Version: 6.00 Build 0)  -->
<svg version="1.1" id="Layer_1" xmlns="http://www.w3.org/2000/svg" xmlns:xlink="http://www.w3.org/1999/xlink" x="0px" y="0px"
	 viewBox="0 0 512 512" style="enable-background:new 0 0 512 512;" xml:space="preserve">
<g>
	<path style="fill:#464655;" d="M430.103,439.266v29.323c0,4.048,4.103,7.331,9.163,7.331h18.327c5.06,0,9.163-3.283,9.163-7.331
		v-29.323H430.103z"/>
	<path style="fill:#464655;" d="M45.244,439.266v29.323c0,4.048,4.103,7.331,9.163,7.331h18.327c5.06,0,9.163-3.283,9.163-7.331
		v-29.323H45.244z"/>
</g>
<path style="fill:#9B735A;" d="M485.083,439.266H26.917c-10.122,0-18.327-8.205-18.327-18.327V109.387
	c0-10.122,8.205-18.327,18.327-18.327h458.166c10.122,0,18.327,8.205,18.327,18.327V420.94
	C503.409,431.062,495.205,439.266,485.083,439.266z"/>
<path style="fill:#8C5F50;" d="M471.338,411.776H40.662c-2.53,0-4.582-2.051-4.582-4.582V123.132c0-2.53,2.051-4.582,4.582-4.582
	h430.676c2.53,0,4.582,2.051,4.582,4.582v284.063C475.919,409.725,473.868,411.776,471.338,411.776z"/>
<rect x="81.897" y="91.06" style="fill:#6E4848;" width="36.653" height="348.206"/>
<rect x="81.897" y="91.06" style="fill:#785353;" width="36.653" height="27.49"/>
<rect x="393.45" y="91.06" style="fill:#6E4848;" width="36.653" height="348.206"/>
<rect x="393.45" y="91.06" style="fill:#785353;" width="36.653" height="27.49"/>
<g>
	<path style="fill:#FFDC64;" d="M210.183,155.204l-18.327-18.327l-18.327,18.327v54.98c0,5.06,4.103,9.163,9.163,9.163h18.327
		c5.06,0,9.163-4.103,9.163-9.163V155.204z"/>
	<path style="fill:#FFDC64;" d="M118.55,237.673H81.897c-5.06,0-9.163-4.103-9.163-9.163v-36.653c0-5.06,4.103-9.163,9.163-9.163
		h36.653c5.06,0,9.163,4.103,9.163,9.163v36.653C127.714,233.571,123.611,237.673,118.55,237.673z"/>
	<path style="fill:#FFDC64;" d="M430.103,237.673H393.45c-5.06,0-9.163-4.103-9.163-9.163v-36.653c0-5.06,4.103-9.163,9.163-9.163
		h36.653c5.06,0,9.163,4.103,9.163,9.163v36.653C439.266,233.571,435.163,237.673,430.103,237.673z"/>
</g>
<path d="M485.083,82.47H328.734V54.407c0-14.842-12.075-26.917-26.917-26.917h-91.633c-14.842,0-26.917,12.075-26.917,26.917V82.47
	H26.917C12.075,82.47,0,94.545,0,109.387V420.94c0,14.842,12.075,26.917,26.917,26.917h9.736v18.899
	c0,9.79,7.964,17.754,17.754,17.754h18.327c9.79,0,17.754-7.964,17.754-17.754v-18.899h331.025v18.899
	c0,9.79,7.964,17.754,17.754,17.754h18.327c9.79,0,17.754-7.964,17.754-17.754v-18.899h9.736c14.842,0,26.917-12.075,26.917-26.917
	V109.387C512,94.545,499.925,82.47,485.083,82.47z M411.776,209.611c4.744,0,8.591-3.846,8.591-8.591v-9.736h9.736
	c0.316,0,0.573,0.257,0.573,0.573v36.653c0,0.313-0.253,0.568-0.566,0.572c-0.002,0-0.005,0-0.007,0
	c-0.011,0-0.022,0.001-0.033,0.001h-36.587c-0.011,0-0.022-0.001-0.033-0.001c-0.002,0-0.005,0-0.007,0
	c-0.313-0.003-0.566-0.258-0.566-0.572v-36.653c0-0.316,0.257-0.573,0.573-0.573h9.736v9.736
	C403.186,205.764,407.032,209.611,411.776,209.611z M402.04,246.264h19.472v184.412H402.04V246.264z M200.447,54.407
	c0-5.369,4.367-9.736,9.736-9.736h91.633c5.369,0,9.736,4.367,9.736,9.736V82.47H200.447V54.407z M191.857,149.026l9.736,9.736
	v51.421c0,0.316-0.257,0.573-0.573,0.573h-18.327c-0.316,0-0.573-0.257-0.573-0.573v-51.421L191.857,149.026z M183.266,133.319
	l-15.81,15.81c-1.612,1.61-2.516,3.796-2.516,6.074v54.98c0,9.79,7.964,17.754,17.754,17.754h18.327
	c9.79,0,17.754-7.964,17.754-17.754v-54.98c0-2.278-0.905-4.464-2.516-6.074l-15.81-15.81V99.651h184.412v76.68
	c-5.458,3.032-9.163,8.852-9.163,15.526v36.653c0,6.674,3.705,12.494,9.163,15.526v186.639H127.141V244.036
	c5.458-3.032,9.163-8.852,9.163-15.526v-36.653c0-9.79-7.964-17.754-17.754-17.754H90.488V99.651h19.472v46.389
	c0,4.744,3.846,8.591,8.591,8.591c4.744,0,8.591-3.846,8.591-8.591V99.651h56.125V133.319z M100.224,209.611
	c4.744,0,8.591-3.846,8.591-8.591v-9.736h9.736c0.316,0,0.573,0.257,0.573,0.573v36.653c0,0.313-0.253,0.568-0.566,0.572
	c-0.002,0-0.005,0-0.007,0c-0.011,0-0.022,0.001-0.033,0.001H81.93c-0.011,0-0.022-0.001-0.033-0.001c-0.002,0-0.005,0-0.007,0
	c-0.313-0.003-0.566-0.259-0.566-0.572v-36.653c0-0.316,0.257-0.573,0.573-0.573h9.736v9.736
	C91.633,205.764,95.479,209.611,100.224,209.611z M90.488,246.264h19.472v184.412H90.488V246.264z M17.181,420.94V109.387
	c0-5.369,4.367-9.736,9.736-9.736h46.389v76.68c-5.458,3.032-9.163,8.852-9.163,15.526v36.653c0,6.674,3.705,12.494,9.163,15.526
	v186.639H26.917C21.549,430.676,17.181,426.308,17.181,420.94z M73.306,466.756c0,0.316-0.257,0.573-0.573,0.573H54.407
	c-0.316,0-0.573-0.257-0.573-0.573v-18.899h19.472V466.756z M458.166,466.756c0,0.316-0.257,0.573-0.573,0.573h-18.327
	c-0.316,0-0.573-0.257-0.573-0.573v-18.899h19.472V466.756z M494.819,420.94c0,5.369-4.367,9.736-9.736,9.736h-46.389V244.036
	c5.458-3.032,9.163-8.852,9.163-15.526v-36.653c0-9.79-7.964-17.754-17.754-17.754H402.04V99.651h19.472v46.389
	c0,4.744,3.846,8.591,8.591,8.591s8.591-3.846,8.591-8.591V99.651h46.389c5.369,0,9.736,4.367,9.736,9.736V420.94z"/>
<g>
</g>
<g>
</g>
<g>
</g>
<g>
</g>
<g>
</g>
<g>
</g>
<g>
</g>
<g>
</g>
<g>
</g>
<g>
</g>
<g>
</g>
<g>
</g>
<g>
</g>
<g>
</g>
<g>
</g>
</svg>
